# xmcd
#
# Track frame offsets:
#	150
#	10588
#	22132
#	36381
#	51995
#	66265
#	80802
#	94772
#	114282
#	126175
#	138660
#	154842
#	168074
#
# Disc length: 2472 seconds
#
# Revision: 2
# Processed by: cddbd v1.4PL0 Copyright (c) Steve Scherf et al.
# Submitted via: EasyCDDAExtractor 6.2.0.3
#
DISCID=ae09a60d
DTITLE=Kentucky Headhunters - Electric Barnyard
DYEAR=1900
DGENRE=Country
TTITLE0=It's Chitlin' Time
TTITLE1=The Ballad Of Davy Crockett
TTITLE2=Only Daddy That'll Walk The Line
TTITLE3=With Body and Soul
TTITLE4=Diane
TTITLE5=16 and Single
TTITLE6=Wishin' Well
TTITLE7=Spirit In The Sky
TTITLE8=Always Makin' Love
TTITLE9=Love Bug Crawl
TTITLE10=Big Mexican Dinner
TTITLE11=Kickin' Them Blues Around
TTITLE12=Take Me Back
EXTD=
EXTT0=
EXTT1=
EXTT2=
EXTT3=
EXTT4=
EXTT5=
EXTT6=
EXTT7=
EXTT8=
EXTT9=
EXTT10=
EXTT11=
EXTT12=
PLAYORDER=
